
<svg version="1.0" xmlns="http://www.w3.org/2000/svg"
 width="261.000000pt" height="117.000000pt" viewBox="0 0 261.000000 117.000000"
 preserveAspectRatio="xMidYMid meet">

<g transform="translate(0.000000,117.000000) scale(0.100000,-0.100000)"
fill="#000000" stroke="none">
<path d="M909 1076 c-15 -24 -36 -63 -47 -87 -251 -547 -258 -561 -304 -581
-66 -30 -187 -60 -213 -54 -46 12 -40 53 17 109 32 33 35 52 11 65 -25 13 -39
6 -63 -33 -15 -24 -26 -32 -40 -28 -49 13 -160 -57 -160 -101 0 -53 45 -59
115 -15 37 24 50 28 56 17 5 -7 9 -16 9 -20 0 -14 59 -38 94 -38 19 0 69 11
111 24 l76 24 -21 -36 c-14 -23 -19 -44 -15 -59 8 -33 25 -25 53 24 35 64 124
148 176 168 74 28 99 3 51 -53 -18 -21 -36 -31 -70 -35 -84 -12 -135 -56 -105
-92 19 -23 48 -18 117 20 35 19 76 35 91 35 27 0 131 23 164 35 16 6 16 3 -3
-39 -23 -53 -22 -89 3 -94 9 -2 25 5 35 16 139 148 180 182 217 182 9 0 33
-15 53 -34 70 -62 107 -70 181 -36 41 19 42 19 42 0 0 -10 10 -31 23 -46 33
-38 103 -43 194 -16 86 26 195 95 187 117 -8 19 -38 20 -53 2 -6 -8 -46 -30
-89 -50 -94 -44 -189 -59 -211 -33 -12 15 -12 22 2 52 21 43 21 58 2 74 -12
10 -21 7 -47 -15 -42 -36 -105 -64 -141 -65 -20 0 -41 12 -70 40 -68 67 -104
66 -193 -6 -30 -25 -58 -43 -60 -41 -3 3 60 142 139 308 176 370 191 405 183
424 -10 28 -25 15 -86 -76 -47 -70 -60 -98 -56 -115 5 -17 -10 -56 -47 -131
-30 -60 -80 -165 -112 -234 l-57 -127 -72 -21 c-102 -30 -108 -29 -100 18 5
34 3 43 -19 65 -33 33 -69 33 -125 1 -24 -14 -48 -23 -52 -20 -13 8 223 515
276 596 18 28 14 59 -8 59 -7 0 -25 -20 -39 -44z"/>
<!-- <path d="M2251 415 c-248 -335 -279 -385 -239 -385 8 0 132 159 276 354 249
337 279 386 238 386 -6 0 -130 -160 -275 -355z"/> -->
<path d="M1630 651 c-26 -50 3 -90 40 -56 23 20 26 45 8 63 -18 18 -36 15 -48
-7z"/>
<path d="M1996 404 c-32 -32 -8 -82 33 -69 26 8 38 50 21 70 -16 19 -35 19
-54 -1z"/>
</g>
</svg>
